<svg xmlns="http://www.w3.org/2000/svg" xmlns:xlink="http://www.w3.org/1999/xlink" viewBox="0,0,256,256" width="30px" height="30px" fill-rule="nonzero"><g transform="translate(-25.6,-25.6) scale(1.2,1.2)"><g fill="none" fill-rule="nonzero" stroke="none" stroke-width="1" stroke-linecap="butt" stroke-linejoin="miter" stroke-miterlimit="10" stroke-dasharray="" stroke-dashoffset="0" font-family="none" font-weight="none" font-size="none" text-anchor="none" style="mix-blend-mode: normal"><g transform="scale(2.56,2.56)"><path d="M82,25.275l-7.274,-7.274l-24.726,24.726l-24.724,-24.731l-7.273,7.272l24.724,24.732l-24.727,24.727l7.274,7.274l24.726,-24.726l24.722,24.728l7.274,-7.271l-24.723,-24.73z" fill="#f15b6c"></path><path d="M74.722,83.003v0c-0.265,0 -0.52,-0.105 -0.707,-0.293l-24.015,-24.021l-24.02,24.019c-0.391,0.391 -1.023,0.391 -1.414,0l-7.274,-7.274c-0.391,-0.391 -0.391,-1.023 0,-1.414l24.021,-24.02l-24.017,-24.025c-0.391,-0.391 -0.391,-1.024 0,-1.414l7.273,-7.271c0.188,-0.188 0.442,-0.293 0.707,-0.293v0c0.265,0 0.52,0.105 0.707,0.293l24.017,24.022l24.019,-24.019c0.391,-0.391 1.023,-0.391 1.414,0l7.274,7.274c0.391,0.391 0.391,1.023 0,1.414l-24.02,24.02l24.016,24.023c0.391,0.391 0.391,1.024 0,1.414l-7.273,7.271c-0.188,0.189 -0.443,0.294 -0.708,0.294zM50,56.275v0c0.265,0 0.52,0.105 0.707,0.293l24.015,24.021l5.859,-5.857l-24.015,-24.023c-0.391,-0.391 -0.391,-1.023 0,-1.414l24.02,-24.02l-5.86,-5.86l-24.019,24.019c-0.188,0.188 -0.442,0.293 -0.707,0.293v0c-0.265,0 -0.52,-0.105 -0.707,-0.293l-24.017,-24.023l-5.859,5.857l24.018,24.024c0.391,0.391 0.391,1.023 0,1.414l-24.021,24.021l5.86,5.86l24.02,-24.019c0.187,-0.188 0.441,-0.293 0.706,-0.293z" fill="#1f212b"></path><path d="M74.5,75c-0.128,0 -0.256,-0.049 -0.354,-0.146l-1,-1c-0.195,-0.195 -0.195,-0.512 0,-0.707c0.195,-0.195 0.512,-0.195 0.707,0l1,1c0.195,0.195 0.195,0.512 0,0.707c-0.097,0.097 -0.225,0.146 -0.353,0.146zM71.5,72c-0.128,0 -0.256,-0.049 -0.354,-0.146l-2,-2c-0.195,-0.195 -0.195,-0.512 0,-0.707c0.195,-0.195 0.512,-0.195 0.707,0l2,2c0.195,0.195 0.195,0.512 0,0.707c-0.097,0.097 -0.225,0.146 -0.353,0.146zM67.5,68c-0.128,0 -0.256,-0.049 -0.354,-0.146l-17.5,-17.5c-0.195,-0.195 -0.195,-0.512 0,-0.707l21.5,-21.5c0.195,-0.195 0.512,-0.195 0.707,0c0.195,0.195 0.195,0.512 0,0.707l-21.146,21.146l17.146,17.146c0.195,0.195 0.195,0.512 0,0.707c-0.097,0.098 -0.225,0.147 -0.353,0.147zM73.5,27c-0.128,0 -0.256,-0.049 -0.354,-0.146c-0.195,-0.195 -0.195,-0.512 0,-0.707l1,-1c0.195,-0.195 0.512,-0.195 0.707,0c0.195,0.195 0.195,0.512 0,0.707l-1,1c-0.097,0.097 -0.225,0.146 -0.353,0.146zM26.5,27c-0.128,0 -0.256,-0.049 -0.354,-0.146l-1,-1c-0.195,-0.195 -0.195,-0.512 0,-0.707c0.195,-0.195 0.512,-0.195 0.707,0l1,1c0.195,0.195 0.195,0.512 0,0.707c-0.097,0.097 -0.225,0.146 -0.353,0.146zM30.5,31c-0.128,0 -0.256,-0.049 -0.354,-0.146l-2,-2c-0.195,-0.195 -0.195,-0.512 0,-0.707c0.195,-0.195 0.512,-0.195 0.707,0l2,2c0.195,0.195 0.195,0.512 0,0.707c-0.097,0.097 -0.225,0.146 -0.353,0.146z" fill="#1f212b"></path><path d="M28.5,72c-0.128,0 -0.256,-0.049 -0.354,-0.146c-0.195,-0.195 -0.195,-0.512 0,-0.707l21.147,-21.147l-17.147,-17.146c-0.195,-0.195 -0.195,-0.512 0,-0.707c0.195,-0.195 0.512,-0.195 0.707,0l17.5,17.5c0.195,0.195 0.195,0.512 0,0.707l-21.5,21.5c-0.097,0.097 -0.225,0.146 -0.353,0.146zM25.5,75c-0.128,0 -0.256,-0.049 -0.354,-0.146c-0.195,-0.195 -0.195,-0.512 0,-0.707l1,-1c0.195,-0.195 0.512,-0.195 0.707,0c0.195,0.195 0.195,0.512 0,0.707l-1,1c-0.097,0.097 -0.225,0.146 -0.353,0.146z" fill="#1f212b"></path></g></g></g></svg>